# xmcd
#
# Track frame offsets:
#	150
#	11560
#	28766
#	39069
#	62601
#	75898
#	87099
#	102065
#	114642
#	166315
#	179455
#	190847
#	219219
#	235575
#	271240
#
# Disc length: 3907
#
# Revision: 3
# Processed by: cddbd v1.5.1PL0 Copyright (c) Steve Scherf et al.
# Submitted via: CDex 1.50Beta7
# Normalized: r2:DSETVAR1,TDELIM( - )
#
DISCID=a90f410f
DTITLE=Various Artist - Latin-Soul Descarga and Boogalo
DYEAR=1999
DGENRE=Jazz
TTITLE0=Mongo Santamaria/La Lupe - Watermelon Man
TTITLE1=Fania All Stars - Ell Fue
TTITLE2=Orquesta Harlow - Mess Around
TTITLE3=Ray Barreto - Acid
TTITLE4=Ralfi Pagan - Latin Soul
TTITLE5=Willie Boho - Boho ! Do That Thing
TTITLE6=Ralph Robles - Taking Over
TTITLE7=Jack Constanzo - Green Onions
TTITLE8=Eddie Palmieri - Azucar
TTITLE9=Willie Boho - Guajira
TTITLE10=Monguito Santamaria - Hey Sister
TTITLE11=Charlie Palmieri - Hay que estar en algo/Either you have it or you don't
TTITLE12=Tito Puente - hit the bongo
TTITLE13=Fania All Stars - El Raton
TTITLE14=Candido - Shadow of your Smile
EXTD=YEAR: 1999
EXTT0=
EXTT1=
EXTT2=
EXTT3=
EXTT4=
EXTT5=
EXTT6=
EXTT7=
EXTT8=
EXTT9=
EXTT10=
EXTT11=
EXTT12=
EXTT13=
EXTT14=
PLAYORDER=
